<svg width="156" height="78" xmlns="http://www.w3.org/2000/svg">
 <defs>
  <linearGradient y2="0.184525" y1="-0.240194" x2="0.001004" x1="0.797438" id="paint0_linear">
   <stop stop-color="#FF7BFF"/>
   <stop stop-color="#A0F" offset="0.741"/>
  </linearGradient>
  <linearGradient y2="0.49357" y1="1.057384" x2="1.003687" x1="-0.00258" id="paint1_linear">
   <stop stop-color="#FF7BFF"/>
   <stop stop-color="#A0F" offset="1"/>
  </linearGradient>
 </defs>
 <g>
  <title>background</title>
  <rect fill="none" id="canvas_background" height="80" width="158" y="-1" x="-1"/>
 </g>
 <g>
  <title>Layer 1</title>
  <path id="svg_2" d="m117.72,2c8.07,2.229 14.789,7.688 17.773,14.581c4.882,11.277 3.923,25.662 -1.225,34.07c-0.059,0.099 -0.121,0.196 -0.182,0.294c-0.092,0.145 -0.183,0.292 -0.278,0.433c-3.831,5.83 -10.424,9.689 -17.906,9.689c-11.808,0 -21.415,-9.607 -21.415,-21.414c0,-11.808 9.607,-21.415 21.415,-21.415c0.867,0 1.733,0.063 2.573,0.164c-17.614,-3.946 -40.263,8.111 -35.446,39.582c6.455,11.504 18.775,19.301 32.873,19.301c20.751,0 37.633,-16.881 37.633,-37.632c0,-20.09 -15.853,-36.77 -35.815,-37.653z" fill="url(#paint0_linear)"/>
  <path id="svg_3" d="m132.392,17.923c-2.637,-6.091 -8.577,-10.831 -15.879,-12.727c-4.349,-1.13 -9.412,-0.937 -14.208,0.358c-6.947,2.075 -11.773,6.072 -14.649,9.147c-15.285,17.143 -7.976,38.194 -4.605,43.322c-6.852,-44.537 41.368,-49.953 52.228,-27.093c-0.211,-4.452 -1.142,-8.976 -2.887,-13.007z" fill="url(#paint1_linear)"/>
  <path id="svg_5" d="m40.72,2c8.07,2.229 14.789,7.688 17.773,14.581c4.882,11.277 3.923,25.662 -1.225,34.07c-0.059,0.099 -0.121,0.196 -0.182,0.294c-0.092,0.145 -0.183,0.292 -0.278,0.433c-3.831,5.83 -10.424,9.689 -17.906,9.689c-11.808,0 -21.415,-9.607 -21.415,-21.414c0,-11.808 9.607,-21.415 21.415,-21.415c0.867,0 1.733,0.063 2.573,0.164c-17.614,-3.946 -40.263,8.111 -35.446,39.582c6.455,11.504 18.775,19.301 32.873,19.301c20.751,0 37.633,-16.881 37.633,-37.632c0,-20.09 -15.853,-36.77 -35.815,-37.653z" fill="url(#paint0_linear)"/>
  <path id="svg_6" d="m55.392,17.923c-2.637,-6.091 -8.577,-10.831 -15.879,-12.727c-4.349,-1.13 -9.412,-0.937 -14.208,0.358c-6.947,2.075 -11.773,6.072 -14.649,9.147c-15.285,17.143 -7.976,38.194 -4.605,43.322c-6.852,-44.537 41.368,-49.953 52.228,-27.093c-0.211,-4.452 -1.142,-8.976 -2.887,-13.007z" fill="url(#paint1_linear)"/>
 </g>
</svg>